<?xml version="1.0" encoding="iso-8859-1"?>
<!-- Generator: Adobe Illustrator 19.0.0, SVG Export Plug-In . SVG Version: 6.00 Build 0)  -->
<svg version="1.1" id="Capa_1" xmlns="http://www.w3.org/2000/svg" xmlns:xlink="http://www.w3.org/1999/xlink" x="0px" y="0px"
	 viewBox="0 0 512 512" style="enable-background:new 0 0 512 512;" xml:space="preserve">
<g>
	<g>
		<path d="M394.069,228.6c-1.859-1.87-4.439-2.93-7.069-2.93s-5.21,1.06-7.07,2.93c-1.86,1.86-2.93,4.44-2.93,7.07
			s1.069,5.2,2.93,7.07c1.86,1.86,4.44,2.93,7.07,2.93s5.21-1.07,7.069-2.93c1.86-1.86,2.931-4.44,2.931-7.07
			C397,233.03,395.93,230.46,394.069,228.6z"/>
	</g>
</g>
<g>
	<g>
		<path d="M247.932,310H180c-5.522,0-10,4.477-10,10s4.478,10,10,10h67.932c5.522,0,10-4.477,10-10S253.454,310,247.932,310z"/>
	</g>
</g>
<g>
	<g>
		<path d="M255,234.93c-1.86-1.86-4.44-2.93-7.07-2.93s-5.21,1.07-7.07,2.93c-1.859,1.86-2.93,4.44-2.93,7.07s1.07,5.21,2.93,7.07
			s4.44,2.93,7.07,2.93c2.639,0,5.21-1.07,7.07-2.93c1.859-1.86,2.93-4.44,2.93-7.07S256.86,236.79,255,234.93z"/>
	</g>
</g>
<g>
	<g>
		<path d="M201,232H96.241c-5.522,0-10,4.477-10,10s4.478,10,10,10H201c5.522,0,10-4.477,10-10S206.522,232,201,232z"/>
	</g>
</g>
<g>
	<g>
		<path d="M327.751,180H96.241c-5.522,0-10,4.477-10,10s4.478,10,10,10h231.51c5.522,0,10-4.477,10-10S333.273,180,327.751,180z"/>
	</g>
</g>
<g>
	<g>
		<path d="M327.759,128H96.241c-5.522,0-10,4.477-10,10s4.478,10,10,10h231.518c5.522,0,10-4.477,10-10S333.281,128,327.759,128z"/>
	</g>
</g>
<g>
	<g>
		<path d="M327.751,76H96.241c-5.522,0-10,4.477-10,10s4.478,10,10,10h231.51c5.522,0,10-4.477,10-10S333.273,76,327.751,76z"/>
	</g>
</g>
<g>
	<g>
		<path d="M455,54h-58V30c0-16.542-13.458-30-30-30H57C40.458,0,27,13.458,27,30v398c0,16.542,13.458,30,30,30h58v24
			c0,16.542,13.458,30,30,30h310c16.542,0,30-13.458,30-30V84C485,67.458,471.542,54,455,54z M465,482c0,5.514-4.486,10-10,10H145
			c-5.514,0-10-4.486-10-10v-24h179.988c0,0,0.007,0,0.01,0c2.603,0,5.16-1.017,7.073-2.929l72-72
			c1.912-1.912,2.903-4.469,2.905-7.07c0,0,0.016-0.001,0.024-0.001v-96.333c0-5.523-4.478-10-10-10c-5.522,0-10,4.477-10,10V366
			h-48.154C315.697,366,305,376.697,305,389.846V438H57c-5.514,0-10-4.486-10-10V30c0-5.514,4.486-10,10-10h310
			c5.514,0,10,4.486,10,10v160c0,5.523,4.478,10,10,10c5.522,0,10-4.477,10-10V74h58c5.514,0,10,4.486,10,10V482z M325,423.858
			v-34.012c0-2.121,1.726-3.846,3.846-3.846h34.012L325,423.858z"/>
	</g>
</g>
<g>
	<g>
		<path d="M117,284c-19.851,0-36,16.149-36,36s16.149,36,36,36s36-16.149,36-36S136.851,284,117,284z M117,336
			c-8.822,0-16-7.178-16-16c0-8.822,7.178-16,16-16s16,7.178,16,16C133,328.822,125.822,336,117,336z"/>
	</g>
</g>
<g>
</g>
<g>
</g>
<g>
</g>
<g>
</g>
<g>
</g>
<g>
</g>
<g>
</g>
<g>
</g>
<g>
</g>
<g>
</g>
<g>
</g>
<g>
</g>
<g>
</g>
<g>
</g>
<g>
</g>
</svg>
